<svg width="114" height="21" viewBox="0 0 114 21" fill="none" xmlns="http://www.w3.org/2000/svg">
<g id="BrainersHub-Logo-White-2 2 1" clip-path="url(#clip0_203_183)">
<g id="Clip path group">
<mask id="mask0_203_183" style="mask-type:luminance" maskUnits="userSpaceOnUse" x="0" y="0" width="114" height="21">
<g id="clip0_21_925">
<path id="Vector" d="M113.965 0.00976562H0V20.4261H113.965V0.00976562Z" fill="white"/>
</g>
</mask>
<g mask="url(#mask0_203_183)">
<g id="Group">
<g id="Mask group">
<mask id="mask1_203_183" style="mask-type:luminance" maskUnits="userSpaceOnUse" x="0" y="0" width="114" height="21">
<g id="Group_2">
<path id="Vector_2" d="M113.961 0.00976562H0V20.4244H113.961V0.00976562Z" fill="white"/>
</g>
</mask>
<g mask="url(#mask1_203_183)">
<g id="Group_3">
<path id="Vector_3" d="M13.2308 1.80406L13.1843 1.85647C12.8636 2.1772 12.8636 2.69904 13.1843 3.01978L16.6892 6.48049C16.8502 6.6414 17.0542 6.73179 17.2635 6.73462C17.4629 6.72837 17.6828 6.64961 17.8522 6.48049C18.0302 6.30481 18.1217 6.08752 18.1217 5.85521V2.41518C18.1217 1.9443 17.7383 1.56125 17.2675 1.56125H13.8275C13.6013 1.56125 13.3912 1.64709 13.2308 1.80406ZM17.274 7.60495H17.2513C16.8148 7.599 16.3968 7.41851 16.075 7.09698L12.571 3.63712C11.9199 2.98605 11.9091 1.93637 12.5369 1.27396L12.5664 1.23883C12.8917 0.890626 13.3512 0.690918 13.8275 0.690918H17.2675C18.2183 0.690918 18.992 1.46436 18.992 2.41518V5.85521C18.992 6.31359 18.8152 6.74281 18.4937 7.0675L18.4676 7.09584C18.1386 7.42477 17.7157 7.60495 17.274 7.60495Z" fill="#9E8B69"/>
<path id="Vector_4" d="M8.16518 2.69018C7.57389 2.69018 7.02002 2.91852 6.60552 3.33301L1.51347 8.42507C1.09872 8.83955 0.870356 9.39342 0.870356 9.98473C0.870356 10.576 1.09872 11.1299 1.51347 11.5444L3.65223 13.6834C3.93101 13.9622 4.24861 14.1251 4.55543 14.2166L4.58096 10.0034C4.58096 9.5575 4.75206 9.13308 5.06315 8.81009C5.74424 8.129 6.81912 8.12871 7.48011 8.78997L8.12182 9.43168C8.22126 9.53112 8.29804 9.52999 8.39582 9.43168L10.5498 7.27735C11.3952 6.43194 11.3876 4.99608 10.5331 4.1416L9.72483 3.33301C9.31033 2.91852 8.75646 2.69018 8.16518 2.69018ZM5.5272 15.1932C5.6278 15.5408 5.80232 15.8335 6.05647 16.0876L8.19944 18.2304C9.02843 19.0599 10.4898 19.0599 11.3188 18.2304L16.4108 13.1386C17.2707 12.2785 17.2707 10.8789 16.4108 10.019L15.5985 9.20674C14.7441 8.35282 13.3085 8.34546 12.4631 9.19087L10.3085 11.3444C10.2331 11.42 10.2331 11.5427 10.3085 11.6183L10.9675 12.2773C11.625 12.9346 11.6264 14.0033 10.9709 14.6592C10.6388 14.9912 10.2059 15.1705 9.74522 15.1705L5.5272 15.1932ZM9.75914 19.7439C8.93553 19.7439 8.16291 19.4248 7.58409 18.8457L5.44108 16.703C5.00592 16.2678 4.73336 15.7474 4.61778 15.1261C4.00468 15.004 3.45875 14.7206 3.03686 14.2988L0.898119 12.1597C0.319006 11.5809 0 10.8083 0 9.98473C0 9.16112 0.319006 8.38852 0.898119 7.8097L5.99017 2.71766C6.56897 2.13886 7.34157 1.81982 8.16518 1.81982C8.98878 1.81982 9.7614 2.13886 10.3402 2.71766L11.1485 3.52623C11.7279 4.10536 12.0495 4.87994 12.0546 5.70694C12.0596 6.53789 11.7438 7.31417 11.1652 7.89272L9.01117 10.0471C8.59694 10.4618 7.9218 10.4624 7.50647 10.0471L6.86476 9.40534C6.54348 9.08404 6.02075 9.08321 5.70005 9.40393C5.53598 9.57364 5.45129 9.78385 5.45129 10.006L5.42524 14.2764C5.42468 14.2923 5.42437 14.3078 5.42437 14.3234L9.74295 14.3002C9.9733 14.3002 10.1878 14.2112 10.3493 14.05C10.677 13.7219 10.6757 13.2162 10.3521 12.8927L9.69311 12.2337C9.27834 11.8189 9.27834 11.1438 9.69311 10.729L11.8477 8.57552C12.4263 7.99667 13.1762 7.68363 14.0332 7.68561C14.8602 7.69043 15.6348 8.01228 16.2139 8.59139L17.0262 9.40364C18.2254 10.6029 18.2254 12.5544 17.0262 13.754L11.9341 18.8457C11.3553 19.4248 10.5827 19.7439 9.75914 19.7439Z" fill="#9E8B69"/>
<path id="Vector_5" d="M29.56 14.2139C30.243 14.2139 30.646 14.0589 31.0188 13.6397C31.2823 13.3452 31.4217 12.9725 31.4217 12.5846C31.4217 12.1346 31.1895 11.623 30.8324 11.328C30.491 11.0331 30.1186 10.9401 29.3737 10.9401H26.7248V14.2139H29.56ZM29.1415 9.55926C29.7308 9.55926 30.0878 9.45069 30.3668 9.18704C30.646 8.92342 30.8168 8.51989 30.8168 8.10115C30.8168 7.52692 30.5222 7.01478 30.0566 6.79762C29.8086 6.67338 29.5293 6.62689 29.0637 6.62689H26.7248V9.55926H29.1415ZM25.2197 5.24609H29.0949C30.1808 5.24609 30.8631 5.46326 31.4531 6.00667C32.0117 6.54962 32.3218 7.2941 32.3218 8.11633C32.3218 8.92342 32.0425 9.51285 31.3909 10.0714C32.4612 10.7073 32.9268 11.4831 32.9268 12.6002C32.9268 13.5003 32.5546 14.3225 31.8875 14.8655C31.2979 15.3776 30.553 15.5948 29.4981 15.5948H25.2197V5.24609Z" fill="black"/>
<path id="Vector_6" d="M34.7002 15.595V7.83726H36.0501V8.53574C36.4996 7.94583 37.1204 7.65141 38.0513 7.63574V9.12515C36.7324 9.21812 36.1431 9.90095 36.1431 11.3595V15.595H34.7002Z" fill="black"/>
<path id="Vector_7" d="M40.3957 11.7626C40.3957 13.2212 41.6058 14.4778 43.0179 14.4778C44.5074 14.4778 45.7175 13.2677 45.7175 11.7626C45.7175 10.1646 44.5382 8.95448 43.0023 8.95448C41.5592 8.95448 40.3957 10.1959 40.3957 11.7626ZM45.8261 15.595V14.3849C45.2362 15.3157 44.2432 15.7965 42.9245 15.7965C40.6749 15.7965 38.9526 14.0435 38.9526 11.747C38.9526 9.40447 40.6905 7.63574 42.9865 7.63574C43.9953 7.63574 44.7554 7.91506 45.4533 8.53578C45.6397 8.70649 45.7175 8.79944 45.8261 8.95448V7.83728H47.1756V15.595H45.8261Z" fill="black"/>
<path id="Vector_8" d="M49.5029 7.83691H50.9458V15.5946H49.5029V7.83691Z" fill="black"/>
<path id="Vector_9" d="M58.7038 15.595V11.3747C58.7038 10.6146 58.5952 10.1181 58.3781 9.74589C58.0675 9.26457 57.4467 8.95446 56.7802 8.95446C55.5079 8.95446 54.7473 9.85446 54.7473 11.3747V15.595H53.2734V7.83726H54.6235V8.65947C55.1351 7.99284 55.9266 7.63574 56.9196 7.63574C58.8588 7.63574 60.1469 8.92365 60.1469 10.8318V15.595H58.7038Z" fill="black"/>
<path id="Vector_10" d="M68.4475 11.2354C68.3853 9.93187 67.2523 8.89245 65.9028 8.89245C65.2357 8.89245 64.5063 9.2182 64.0412 9.74599C63.6842 10.149 63.5448 10.4904 63.4362 11.2354H68.4475ZM69.642 13.1592C69.0524 14.7728 67.6095 15.7966 65.9184 15.7966C63.762 15.7966 61.9775 13.935 61.9775 11.7006C61.9775 9.38893 63.7462 7.57373 65.9958 7.57373C68.1217 7.57373 69.8903 9.40455 69.8903 11.6076C69.8903 11.7627 69.8747 12.0733 69.8433 12.3526H63.4362C63.7462 13.64 64.7549 14.4779 65.9958 14.4779C66.9116 14.4779 67.6873 14.0122 68.1833 13.1592H69.642Z" fill="black"/>
<path id="Vector_11" d="M71.7827 15.595V7.83726H73.1326V8.53574C73.5822 7.94583 74.2029 7.65141 75.1336 7.63574V9.12515C73.815 9.21812 73.2256 9.90095 73.2256 11.3595V15.595H71.7827Z" fill="black"/>
<path id="Vector_12" d="M80.5387 9.90095C80.4309 9.26457 79.925 8.95448 79.2986 8.95448C78.6539 8.95448 78.0854 9.31154 78.0854 9.82317C78.0854 10.0873 78.3677 10.3197 78.6539 10.4752C78.8509 10.599 78.9406 10.6303 79.5853 10.801C80.4798 11.0333 81.0527 11.2818 81.4293 11.6232C81.9841 12.0884 82.2703 12.6783 82.2703 13.3298C82.2703 14.6642 80.8738 15.7965 79.2087 15.7965C77.992 15.7965 76.9714 15.2844 76.4522 14.4314C76.219 14.0278 76.1299 13.6712 76.1118 13.0662H77.6739C77.7632 13.9813 78.3854 14.4778 79.2805 14.4778C80.0683 14.4778 80.7261 14.0592 80.7261 13.4541C80.7261 12.8641 80.2472 12.6005 79.0298 12.2435C78.1172 11.9798 77.6695 11.7783 77.2936 11.499C76.7744 11.0955 76.5237 10.6303 76.5237 10.0404C76.5237 8.64437 77.7232 7.63574 79.3702 7.63574C80.91 7.63574 82.0377 8.58227 82.0733 9.90095H80.5387Z" fill="black"/>
<path id="Vector_13" d="M91.0667 15.5948V11.0952H85.6091V15.5948H84.104V5.24609H85.6091V9.71437H91.0667V5.24609H92.5712V15.5948H91.0667Z" fill="black"/>
<path id="Vector_14" d="M96.4033 7.83691V12.0572C96.4033 12.8017 96.5119 13.3138 96.7291 13.686C97.0393 14.1673 97.66 14.4775 98.3428 14.4775C99.6151 14.4775 100.375 13.5774 100.375 12.0572V7.83691H101.818V15.5946H100.468V14.7724C100.08 15.3926 99.1803 15.7962 98.1874 15.7962C96.2484 15.7962 94.9604 14.5083 94.9604 12.6001V7.83691H96.4033Z" fill="black"/>
<path id="Vector_15" d="M105.558 11.6851C105.558 13.2983 106.706 14.4776 108.242 14.4776C109.623 14.4776 110.849 13.2053 110.849 11.7624C110.849 10.1644 109.685 8.92347 108.211 8.92347C106.737 8.92347 105.558 10.1644 105.558 11.6851ZM104.146 15.5948V5.24609H105.605V8.92347C106.225 8.06988 107.171 7.60471 108.289 7.60471C110.492 7.60471 112.291 9.46636 112.291 11.7624C112.291 14.0119 110.523 15.7963 108.289 15.7963C107.544 15.7963 106.737 15.5791 106.194 15.222C105.93 15.0519 105.79 14.8963 105.496 14.4933V15.5948H104.146Z" fill="black"/>
<path id="Vector_16" d="M51.2158 5.64596C51.2158 6.20254 50.7646 6.65367 50.2079 6.65367C49.6514 6.65367 49.2002 6.20254 49.2002 5.64596C49.2002 5.08936 49.6514 4.63818 50.2079 4.63818C50.7646 4.63818 51.2158 5.08936 51.2158 5.64596Z" fill="black"/>
<path id="Vector_17" d="M112.862 5.94296H112.985C113.001 5.94296 113.018 5.94221 113.037 5.94042C113.057 5.93859 113.074 5.93424 113.091 5.92727C113.108 5.92034 113.121 5.90951 113.133 5.89455C113.144 5.87984 113.15 5.85927 113.15 5.83306C113.15 5.80689 113.144 5.78642 113.133 5.7716C113.121 5.75677 113.108 5.74593 113.091 5.73888C113.074 5.73187 113.057 5.7275 113.037 5.72573C113.018 5.72407 113.001 5.7232 112.985 5.7232H112.862V5.94296ZM112.614 5.51914H112.941C113 5.51914 113.057 5.52345 113.112 5.53214C113.167 5.54086 113.216 5.55617 113.259 5.57791C113.301 5.59973 113.336 5.63029 113.362 5.66952C113.388 5.70874 113.401 5.75896 113.401 5.82003C113.401 5.8654 113.394 5.9068 113.38 5.94437C113.366 5.98178 113.348 6.0136 113.326 6.03982C113.305 6.06603 113.28 6.08733 113.253 6.10395C113.226 6.12057 113.199 6.13052 113.171 6.13399L113.433 6.53965H113.158L112.925 6.14714H112.865V6.53965H112.614V5.51914ZM112.265 6.03982C112.265 6.14445 112.284 6.24262 112.322 6.33422C112.359 6.42583 112.41 6.50568 112.475 6.57366C112.539 6.64162 112.616 6.69532 112.704 6.73465C112.792 6.77389 112.886 6.79344 112.988 6.79344C113.089 6.79344 113.183 6.77389 113.271 6.73465C113.36 6.69532 113.436 6.64162 113.501 6.57366C113.565 6.50568 113.616 6.42583 113.654 6.33422C113.691 6.24262 113.71 6.14445 113.71 6.03982C113.71 5.93516 113.691 5.83705 113.654 5.74541C113.616 5.65382 113.565 5.57406 113.501 5.50595C113.436 5.43797 113.36 5.38434 113.271 5.3451C113.183 5.30574 113.089 5.28619 112.988 5.28619C112.886 5.28619 112.792 5.30574 112.704 5.3451C112.616 5.38434 112.539 5.43797 112.475 5.50595C112.41 5.57406 112.359 5.65382 112.322 5.74541C112.284 5.83705 112.265 5.93516 112.265 6.03982ZM112.014 6.03982C112.014 5.90553 112.04 5.77941 112.091 5.66172C112.143 5.5439 112.213 5.44102 112.301 5.3529C112.389 5.26487 112.492 5.19507 112.61 5.14361C112.727 5.0921 112.853 5.06641 112.988 5.06641C113.122 5.06641 113.248 5.0921 113.366 5.14361C113.483 5.19507 113.586 5.26487 113.675 5.3529C113.763 5.44102 113.833 5.5439 113.884 5.66172C113.935 5.77941 113.961 5.90553 113.961 6.03982C113.961 6.17422 113.935 6.30021 113.884 6.41791C113.833 6.53572 113.763 6.63869 113.675 6.72675C113.586 6.81493 113.483 6.88468 113.366 6.93605C113.248 6.98753 113.122 7.01335 112.988 7.01335C112.853 7.01335 112.727 6.98753 112.61 6.93605C112.492 6.88468 112.389 6.81493 112.301 6.72675C112.213 6.63869 112.143 6.53572 112.091 6.41791C112.04 6.30021 112.014 6.17422 112.014 6.03982Z" fill="black"/>
</g>
</g>
</g>
</g>
</g>
</g>
</g>
<defs>
<clipPath id="clip0_203_183">
<rect width="114" height="20.5949" fill="white" transform="translate(0 0.00976562)"/>
</clipPath>
</defs>
</svg>
