<svg width="25" height="26" viewBox="0 0 25 26" fill="none" xmlns="http://www.w3.org/2000/svg">
<g id="calendar_month">
<mask id="mask0_13_783" style="mask-type:alpha" maskUnits="userSpaceOnUse" x="0" y="0" width="25" height="26">
<rect id="Bounding box" y="0.875977" width="25" height="25" fill="#D9D9D9"/>
</mask>
<g mask="url(#mask0_13_783)">
<path id="calendar_month_2" d="M4.86109 23.7927C4.39234 23.7927 3.98581 23.6205 3.64148 23.2762C3.29716 22.9319 3.125 22.5253 3.125 22.0566V6.43156C3.125 5.96281 3.29716 5.55628 3.64148 5.21196C3.98581 4.86761 4.39234 4.69544 4.86109 4.69544H6.3368V3.86214C6.3368 3.60634 6.42332 3.39193 6.59635 3.21891C6.76939 3.04587 6.9838 2.95935 7.23958 2.95935C7.5003 2.95935 7.71883 3.04587 7.89518 3.21891C8.07154 3.39193 8.15971 3.60634 8.15971 3.86214V4.69544H16.8403V3.86214C16.8403 3.60634 16.9268 3.39193 17.0998 3.21891C17.2729 3.04587 17.4873 2.95935 17.743 2.95935C18.0038 2.95935 18.2223 3.04587 18.3986 3.21891C18.575 3.39193 18.6632 3.60634 18.6632 3.86214V4.69544H20.1389C20.6077 4.69544 21.0142 4.86761 21.3585 5.21196C21.7028 5.55628 21.875 5.96281 21.875 6.43156V22.0566C21.875 22.5253 21.7028 22.9319 21.3585 23.2762C21.0142 23.6205 20.6077 23.7927 20.1389 23.7927H4.86109ZM4.86109 22.0566H20.1389V11.1191H4.86109V22.0566ZM4.86109 9.38297H20.1389V6.43156H4.86109V9.38297ZM12.5 15.4594C12.2049 15.4594 11.9575 15.3595 11.7578 15.1599C11.5582 14.9602 11.4583 14.7128 11.4583 14.4177C11.4583 14.1225 11.5582 13.8752 11.7578 13.6755C11.9575 13.4758 12.2049 13.376 12.5 13.376C12.7951 13.376 13.0425 13.4758 13.2422 13.6755C13.4418 13.8752 13.5417 14.1225 13.5417 14.4177C13.5417 14.7128 13.4418 14.9602 13.2422 15.1599C13.0425 15.3595 12.7951 15.4594 12.5 15.4594ZM8.33333 15.4594C8.03819 15.4594 7.7908 15.3595 7.59115 15.1599C7.39149 14.9602 7.29167 14.7128 7.29167 14.4177C7.29167 14.1225 7.39149 13.8752 7.59115 13.6755C7.7908 13.4758 8.03819 13.376 8.33333 13.376C8.62847 13.376 8.87587 13.4758 9.07552 13.6755C9.27517 13.8752 9.375 14.1225 9.375 14.4177C9.375 14.7128 9.27517 14.9602 9.07552 15.1599C8.87587 15.3595 8.62847 15.4594 8.33333 15.4594ZM16.6667 15.4594C16.3715 15.4594 16.1241 15.3595 15.9245 15.1599C15.7248 14.9602 15.625 14.7128 15.625 14.4177C15.625 14.1225 15.7248 13.8752 15.9245 13.6755C16.1241 13.4758 16.3715 13.376 16.6667 13.376C16.9618 13.376 17.2092 13.4758 17.4089 13.6755C17.6085 13.8752 17.7083 14.1225 17.7083 14.4177C17.7083 14.7128 17.6085 14.9602 17.4089 15.1599C17.2092 15.3595 16.9618 15.4594 16.6667 15.4594ZM12.5 19.626C12.2049 19.626 11.9575 19.5262 11.7578 19.3265C11.5582 19.1269 11.4583 18.8795 11.4583 18.5844C11.4583 18.2892 11.5582 18.0418 11.7578 17.8422C11.9575 17.6425 12.2049 17.5427 12.5 17.5427C12.7951 17.5427 13.0425 17.6425 13.2422 17.8422C13.4418 18.0418 13.5417 18.2892 13.5417 18.5844C13.5417 18.8795 13.4418 19.1269 13.2422 19.3265C13.0425 19.5262 12.7951 19.626 12.5 19.626ZM8.33333 19.626C8.03819 19.626 7.7908 19.5262 7.59115 19.3265C7.39149 19.1269 7.29167 18.8795 7.29167 18.5844C7.29167 18.2892 7.39149 18.0418 7.59115 17.8422C7.7908 17.6425 8.03819 17.5427 8.33333 17.5427C8.62847 17.5427 8.87587 17.6425 9.07552 17.8422C9.27517 18.0418 9.375 18.2892 9.375 18.5844C9.375 18.8795 9.27517 19.1269 9.07552 19.3265C8.87587 19.5262 8.62847 19.626 8.33333 19.626ZM16.6667 19.626C16.3715 19.626 16.1241 19.5262 15.9245 19.3265C15.7248 19.1269 15.625 18.8795 15.625 18.5844C15.625 18.2892 15.7248 18.0418 15.9245 17.8422C16.1241 17.6425 16.3715 17.5427 16.6667 17.5427C16.9618 17.5427 17.2092 17.6425 17.4089 17.8422C17.6085 18.0418 17.7083 18.2892 17.7083 18.5844C17.7083 18.8795 17.6085 19.1269 17.4089 19.3265C17.2092 19.5262 16.9618 19.626 16.6667 19.626Z" fill="white"/>
</g>
</g>
</svg>
