<svg width="86" height="35" viewBox="0 0 86 35" fill="none" xmlns="http://www.w3.org/2000/svg">
<g id="coliquio-logo-brand (1) 1 1">
<path id="Vector" d="M60.4458 13.1526C59.7482 12.2817 59.3145 11.1116 59.3145 10.0993V5.86563H65.2936C66.4023 5.86563 67.4591 6.19367 68.2692 6.78904C68.9971 7.3242 69.4629 8.0318 69.5821 8.78165C69.6032 8.91238 69.6135 9.04572 69.6135 9.17857H72.8387C72.8387 8.87388 72.8143 8.56696 72.7663 8.26712C72.5117 6.66322 71.5889 5.20465 70.1686 4.15979C68.8115 3.16158 67.0804 2.6123 65.2936 2.6123H56.0894V10.0993C56.0894 13.7565 58.9849 17.8314 63.1391 17.8314V14.578C61.8569 14.578 60.9666 13.8032 60.4458 13.1526Z" fill="#5ABE14"/>
<path id="Vector_2" d="M72.3055 10.8008C70.3471 10.8008 68.4923 11.4465 67.0839 12.6198C65.5857 13.8676 64.7607 15.5533 64.7607 17.3675V32.3605L68.7699 27.9415C68.9976 27.6904 69.1977 27.4388 69.3911 27.1959C69.7026 26.8043 69.9964 26.4346 70.2998 26.2182C70.5715 26.0235 71.1886 26.0317 71.7854 26.0393C71.9131 26.0409 72.0401 26.0425 72.1652 26.0425C72.4889 26.0425 72.8126 26.0415 73.1371 26.0404C73.4589 26.0393 73.7815 26.0382 74.1056 26.0382C74.9689 26.0382 75.7418 25.9281 76.4036 25.7107C77.7386 25.2726 78.9316 24.3833 79.8525 23.139C80.921 21.6956 81.5097 19.9735 81.5097 18.2888V10.8018H72.3055V10.8008ZM78.2849 18.2878C78.2849 19.261 77.9143 20.3189 77.2688 21.1913C76.7557 21.8843 76.0939 22.3907 75.4059 22.6162C75.0667 22.7275 74.6297 22.7838 74.1056 22.7838C73.7782 22.7838 73.4519 22.7849 73.1264 22.786C72.8053 22.7871 72.4856 22.7882 72.166 22.7882C72.0541 22.7882 71.9405 22.7865 71.8268 22.7854C70.8712 22.773 69.5631 22.7567 68.4351 23.5635C68.2749 23.678 68.1258 23.7994 67.9863 23.9241V17.367C67.9863 16.5418 68.3953 15.7464 69.1375 15.1282C69.9695 14.4352 71.0952 14.0535 72.3062 14.0535H78.2853L78.2849 18.2878Z" fill="#1478BE"/>
<path id="Vector_3" d="M24.1682 17.5249H24.1548C23.7135 17.5249 23.3555 17.8806 23.3555 18.3192V28.718C23.3555 29.4207 23.9258 29.996 24.6224 29.996H24.968V18.3192C24.968 17.8806 24.6094 17.5249 24.1682 17.5249Z" fill="#0A4164"/>
<path id="Vector_4" d="M27.7414 21.4292H27.6748C27.248 21.4292 26.9019 21.7865 26.9019 22.2273V28.7236C26.9019 29.4264 27.4668 29.9963 28.1634 29.9963H28.5143V22.2273C28.5143 21.7865 28.1682 21.4292 27.7414 21.4292Z" fill="#0A4164"/>
<path id="Vector_5" d="M8.88165 22.7077C9.71054 22.7077 10.4598 23.0498 10.9994 23.6024L11.0027 23.5991C11.2364 23.8534 11.6219 23.963 12.0276 23.7444C12.125 23.6923 12.2056 23.6116 12.2609 23.5156C12.4824 23.1291 12.4007 22.7576 12.1835 22.5136H12.1852C12.1852 22.5136 12.1738 22.5022 12.169 22.4958L12.14 22.4664C11.0408 21.3424 9.37514 20.7785 7.60834 21.2616C6.10013 21.6743 4.90473 22.859 4.4844 24.3772C3.61956 27.4999 5.92167 30.3276 8.88003 30.3276C10.1625 30.3276 11.3193 29.7946 12.1513 28.9373L12.1545 28.934L12.1803 28.908L12.1771 28.9047C12.3061 28.7616 12.3873 28.5723 12.3873 28.3636C12.3873 27.9173 12.0287 27.5551 11.5859 27.5551L11.5875 27.5584C11.3547 27.5584 11.1467 27.6609 10.9994 27.8209C10.1706 28.6673 8.84511 29.0213 7.49923 28.3978C6.92573 28.1321 6.46454 27.6614 6.20602 27.0807C5.21809 24.8614 6.80049 22.7077 8.88165 22.7077Z" fill="#0A4164"/>
<path id="Vector_6" d="M28.1265 19.773C28.7109 19.5289 28.9885 18.853 28.7464 18.2634C28.5044 17.6738 27.8343 17.3939 27.2499 17.6381C26.6654 17.8823 26.3879 18.5582 26.63 19.1477C26.8721 19.7373 27.5421 20.0172 28.1265 19.773Z" fill="#0A4164"/>
<path id="Vector_7" d="M17.6157 21.1318C15.0862 21.1318 13.0361 23.1998 13.0361 25.7515C13.0361 28.3032 15.0862 30.3713 17.6157 30.3713C20.1452 30.3713 22.1951 28.3032 22.1951 25.7515C22.1951 23.1998 20.1452 21.1318 17.6157 21.1318ZM17.6157 28.7533C15.9715 28.7533 14.6385 27.4091 14.6385 25.7499C14.6385 24.0907 15.9709 22.7465 17.6157 22.7465C19.2604 22.7465 20.5929 24.0907 20.5929 25.7499C20.5929 27.4091 19.2604 28.7533 17.6157 28.7533Z" fill="#0A4164"/>
<path id="Vector_8" d="M50.5829 19.8435C51.2074 19.7413 51.6315 19.1478 51.53 18.5179C51.4285 17.888 50.8402 17.4602 50.216 17.5625C49.5915 17.6647 49.1674 18.2583 49.2689 18.8882C49.37 19.518 49.9584 19.9458 50.5829 19.8435Z" fill="#0A4164"/>
<path id="Vector_9" d="M56.9108 21.1318C54.3814 21.1318 52.3311 23.1998 52.3311 25.7515C52.3311 28.3032 54.3814 30.3713 56.9108 30.3713C59.4403 30.3713 61.4902 28.3032 61.4902 25.7515C61.4902 23.1998 59.4403 21.1318 56.9108 21.1318ZM56.9108 28.7533C55.2665 28.7533 53.9337 27.4091 53.9337 25.7499C53.9337 24.0907 55.2658 22.7465 56.9108 22.7465C58.5555 22.7465 59.888 24.0907 59.888 25.7499C59.888 27.4091 58.5555 28.7533 56.9108 28.7533Z" fill="#0A4164"/>
<path id="Vector_10" d="M47.07 21.474C46.7116 21.5618 46.4669 21.8969 46.4669 22.2694V26.3475C46.4669 27.7551 45.2592 28.8775 43.8334 28.7186C42.6272 28.5842 41.7369 27.5095 41.7369 26.2846V22.2576C41.7369 21.7267 41.2091 21.3151 40.6348 21.4903C40.2967 21.5933 40.0708 21.9149 40.0708 22.2711V26.2108C40.0708 28.331 41.7166 30.1593 43.8936 30.329C44.9905 30.4136 46.1425 29.9934 46.932 29.3953C47.1638 29.7554 47.5738 29.9967 48.0441 29.9967H48.0795V22.2576C48.0795 21.7446 47.6037 21.3438 47.07 21.474Z" fill="#0A4164"/>
<path id="Vector_11" d="M50.3167 21.4292H50.2503C49.8233 21.4292 49.4771 21.7865 49.4771 22.2273V28.7193C49.4771 29.4215 50.0469 29.9963 50.7431 29.9963H51.0896V22.2273C51.0896 21.7865 50.7434 21.4292 50.3167 21.4292Z" fill="#0A4164"/>
<path id="Vector_12" d="M38.7795 25.7515C38.7795 23.1998 36.7296 21.1318 34.2001 21.1318C31.6706 21.1318 29.6206 23.1998 29.6206 25.7515C29.6206 28.3032 31.6706 30.3713 34.2001 30.3713C35.0891 30.3713 35.9185 30.1159 36.621 29.6739L37.5471 30.6087C38.0395 31.1054 38.8382 31.1043 39.3288 30.6087L39.5724 30.3631L37.8143 28.5895C38.4193 27.8065 38.7795 26.8213 38.7795 25.7515ZM36.6667 27.4318L35.2294 25.982C34.9166 25.6663 34.4092 25.6663 34.0963 25.982L34.0953 25.983C33.7824 26.2986 33.7824 26.8105 34.0953 27.126L35.439 28.4816C35.0617 28.6562 34.6419 28.7533 34.2001 28.7533C32.5559 28.7533 31.2229 27.4091 31.2229 25.7499C31.2229 24.0907 32.5554 22.7465 34.2001 22.7465C35.8449 22.7465 37.1773 24.0907 37.1773 25.7499C37.1773 26.3734 36.9887 26.952 36.6667 27.4318Z" fill="#0A4164"/>
</g>
</svg>
