<svg width="52" height="18" viewBox="0 0 52 18" fill="none" xmlns="http://www.w3.org/2000/svg">
<g id="logo-teva 1 1" clip-path="url(#clip0_203_287)">
<g id="Clip path group">
<mask id="mask0_203_287" style="mask-type:luminance" maskUnits="userSpaceOnUse" x="0" y="0" width="52" height="18">
<g id="clip0_21_506">
<path id="Vector" d="M51.4548 0.00976562H0.5V17.7332H51.4548V0.00976562Z" fill="white"/>
</g>
</mask>
<g mask="url(#mask0_203_287)">
<g id="Group">
<path id="Vector_2" fill-rule="evenodd" clip-rule="evenodd" d="M47.5119 10.7253C47.5119 12.5582 46.1192 14.366 43.9835 14.366C41.9379 14.366 40.4558 12.793 40.4558 10.7253C40.4558 8.43232 42.1477 7.07056 43.9407 7.07056C46.1657 7.07056 47.5119 8.89164 47.5119 10.7253ZM47.2439 4.25548V4.99766C46.1693 4.13216 44.8364 3.67578 43.3838 3.67578C39.7055 3.67578 36.824 6.77221 36.8247 10.7253C36.8247 12.4902 37.4302 14.1717 38.5321 15.4619C39.7498 16.893 41.6352 17.7474 43.5759 17.7474C44.9664 17.7474 46.2004 17.3036 47.2439 16.4278V17.1677C47.2439 17.3346 47.3775 17.4705 47.5428 17.4705H50.4392C50.5189 17.4699 50.5953 17.4377 50.6513 17.381C50.7074 17.3242 50.7387 17.2475 50.7383 17.1677V4.25548C50.7387 4.17571 50.7074 4.09903 50.6513 4.04226C50.5953 3.98551 50.5189 3.9533 50.4392 3.95272H47.5428C47.4631 3.9533 47.3868 3.98551 47.3307 4.04226C47.2746 4.09903 47.2435 4.17571 47.2439 4.25548Z" fill="#00567A"/>
<g id="Mask group">
<mask id="mask1_203_287" style="mask-type:luminance" maskUnits="userSpaceOnUse" x="0" y="0" width="13" height="18">
<g id="Group_2">
<path id="Vector_3" d="M0.616699 0.187012H12.0084V17.7258H0.616699V0.187012Z" fill="#00567A"/>
</g>
</mask>
<g mask="url(#mask1_203_287)">
<g id="Group_3">
<path id="Vector_4" fill-rule="evenodd" clip-rule="evenodd" d="M8.89354 14.4691C8.08121 14.4691 7.50077 14.218 7.10939 13.7277C6.81621 13.3599 6.67885 12.8674 6.67885 12.058V7.07108H10.4214C10.4592 7.07088 10.4965 7.06327 10.5313 7.04866C10.5661 7.03404 10.5976 7.01272 10.6241 6.9859C10.6507 6.9591 10.6717 6.9273 10.6859 6.89238C10.7002 6.85746 10.7074 6.82006 10.7072 6.78233V4.21983C10.7074 4.18211 10.7002 4.14471 10.6859 4.10979C10.6717 4.07485 10.6507 4.04307 10.6241 4.01627C10.5976 3.98945 10.5661 3.96813 10.5313 3.95351C10.4965 3.9389 10.4592 3.93127 10.4214 3.93109H6.67959V0.489787C6.67988 0.450255 6.67238 0.411054 6.65749 0.374428C6.64261 0.337804 6.62065 0.304473 6.59286 0.276349C6.56508 0.248223 6.53202 0.225855 6.49558 0.210524C6.45915 0.195195 6.42004 0.187205 6.3805 0.187012H3.34685C3.30731 0.187205 3.26821 0.195195 3.23177 0.210524C3.19533 0.225855 3.16227 0.248223 3.13449 0.276349C3.10671 0.304473 3.08474 0.337804 3.06986 0.374428C3.05499 0.411054 3.04747 0.450255 3.04776 0.489787V3.93109H0.915786C0.836004 3.93167 0.759712 3.96388 0.703644 4.02063C0.647576 4.0774 0.61631 4.15408 0.616703 4.23385V6.76904C0.616703 6.93595 0.751105 7.07182 0.915786 7.07182H3.04776V11.7294C3.04776 13.6324 3.34462 14.8413 4.04101 15.7711C4.98921 17.0501 6.59172 17.7258 8.67422 17.7258C10.2789 17.7258 11.3047 17.3418 11.8578 16.9031C12.0173 16.7761 12.0498 16.4911 11.956 16.3559C11.5151 15.6608 11.0769 14.9639 10.6415 14.2653C10.53 14.0822 10.2922 14.0401 10.0928 14.1501C9.82254 14.2993 9.30635 14.4691 8.89354 14.4691Z" fill="#00567A"/>
</g>
</g>
</g>
<g id="Mask group_2">
<mask id="mask2_203_287" style="mask-type:luminance" maskUnits="userSpaceOnUse" x="0" y="0" width="13" height="18">
<g id="Group_4">
<path id="Vector_5" d="M0.616699 0.187012H12.0084V17.7258H0.616699V0.187012Z" fill="#00567A"/>
</g>
</mask>
<g mask="url(#mask2_203_287)">
<g id="Group_5">
<path id="Vector_6" fill-rule="evenodd" clip-rule="evenodd" d="M8.89354 14.4691C8.08121 14.4691 7.50077 14.218 7.10939 13.7277C6.81621 13.3599 6.67885 12.8674 6.67885 12.058V7.07108H10.4214C10.4592 7.07088 10.4965 7.06327 10.5313 7.04866C10.5661 7.03404 10.5976 7.01272 10.6241 6.9859C10.6507 6.9591 10.6717 6.9273 10.6859 6.89238C10.7002 6.85746 10.7074 6.82006 10.7072 6.78233V4.21983C10.7074 4.18211 10.7002 4.14471 10.6859 4.10979C10.6717 4.07485 10.6507 4.04307 10.6241 4.01627C10.5976 3.98945 10.5661 3.96813 10.5313 3.95351C10.4965 3.9389 10.4592 3.93127 10.4214 3.93109H6.67959V0.489787C6.67988 0.450255 6.67238 0.411054 6.65749 0.374428C6.64261 0.337804 6.62065 0.304473 6.59286 0.276349C6.56508 0.248223 6.53202 0.225855 6.49558 0.210524C6.45915 0.195195 6.42004 0.187205 6.3805 0.187012H3.34685C3.30731 0.187205 3.26821 0.195195 3.23177 0.210524C3.19533 0.225855 3.16227 0.248223 3.13449 0.276349C3.10671 0.304473 3.08474 0.337804 3.06986 0.374428C3.05499 0.411054 3.04747 0.450255 3.04776 0.489787V3.93109H0.915786C0.836004 3.93167 0.759712 3.96388 0.703644 4.02063C0.647576 4.0774 0.61631 4.15408 0.616703 4.23385V6.76904C0.616703 6.93595 0.751105 7.07182 0.915786 7.07182H3.04776V11.7294C3.04776 13.6324 3.34462 14.8413 4.04101 15.7711C4.98921 17.0501 6.59172 17.7258 8.67422 17.7258C10.2789 17.7258 11.3047 17.3418 11.8578 16.9031C12.0173 16.7761 12.0498 16.4911 11.956 16.3559C11.5151 15.6608 11.0769 14.9639 10.6415 14.2653C10.53 14.0822 10.2922 14.0401 10.0928 14.1501C9.82254 14.2993 9.30635 14.4691 8.89354 14.4691Z" fill="#00567A"/>
</g>
</g>
</g>
<g id="Mask group_3">
<mask id="mask3_203_287" style="mask-type:luminance" maskUnits="userSpaceOnUse" x="0" y="0" width="13" height="18">
<g id="Group_6">
<path id="Vector_7" d="M0.616699 0.187012H12.0084V17.7258H0.616699V0.187012Z" fill="#00567A"/>
</g>
</mask>
<g mask="url(#mask3_203_287)">
<g id="Group_7">
<path id="Vector_8" fill-rule="evenodd" clip-rule="evenodd" d="M8.89354 14.4691C8.08121 14.4691 7.50077 14.218 7.10939 13.7277C6.81621 13.3599 6.67885 12.8674 6.67885 12.058V7.07108H10.4214C10.4592 7.07088 10.4965 7.06327 10.5313 7.04866C10.5661 7.03404 10.5976 7.01272 10.6241 6.9859C10.6507 6.9591 10.6717 6.9273 10.6859 6.89238C10.7002 6.85746 10.7074 6.82006 10.7072 6.78233V4.21983C10.7074 4.18211 10.7002 4.14471 10.6859 4.10979C10.6717 4.07485 10.6507 4.04307 10.6241 4.01627C10.5976 3.98945 10.5661 3.96813 10.5313 3.95351C10.4965 3.9389 10.4592 3.93127 10.4214 3.93109H6.67959V0.489787C6.67988 0.450255 6.67238 0.411054 6.65749 0.374428C6.64261 0.337804 6.62065 0.304473 6.59286 0.276349C6.56508 0.248223 6.53202 0.225855 6.49558 0.210524C6.45915 0.195195 6.42004 0.187205 6.3805 0.187012H3.34685C3.30731 0.187205 3.26821 0.195195 3.23177 0.210524C3.19533 0.225855 3.16227 0.248223 3.13449 0.276349C3.10671 0.304473 3.08474 0.337804 3.06986 0.374428C3.05499 0.411054 3.04747 0.450255 3.04776 0.489787V3.93109H0.915786C0.836004 3.93167 0.759712 3.96388 0.703644 4.02063C0.647576 4.0774 0.61631 4.15408 0.616703 4.23385V6.76904C0.616703 6.93595 0.751105 7.07182 0.915786 7.07182H3.04776V11.7294C3.04776 13.6324 3.34462 14.8413 4.04101 15.7711C4.98921 17.0501 6.59172 17.7258 8.67422 17.7258C10.2789 17.7258 11.3047 17.3418 11.8578 16.9031C12.0173 16.7761 12.0498 16.4911 11.956 16.3559C11.5151 15.6608 11.0769 14.9639 10.6415 14.2653C10.53 14.0822 10.2922 14.0401 10.0928 14.1501C9.82254 14.2993 9.30635 14.4691 8.89354 14.4691Z" fill="#00567A"/>
</g>
</g>
</g>
<g id="Mask group_4">
<mask id="mask4_203_287" style="mask-type:luminance" maskUnits="userSpaceOnUse" x="0" y="0" width="13" height="18">
<g id="Group_8">
<path id="Vector_9" d="M0.616699 0.187012H12.0084V17.7258H0.616699V0.187012Z" fill="#00567A"/>
</g>
</mask>
<g mask="url(#mask4_203_287)">
<g id="Group_9">
<path id="Vector_10" fill-rule="evenodd" clip-rule="evenodd" d="M8.89354 14.4691C8.08121 14.4691 7.50077 14.218 7.10939 13.7277C6.81621 13.3599 6.67885 12.8674 6.67885 12.058V7.07108H10.4214C10.4592 7.07088 10.4965 7.06327 10.5313 7.04866C10.5661 7.03404 10.5976 7.01272 10.6241 6.9859C10.6507 6.9591 10.6717 6.9273 10.6859 6.89238C10.7002 6.85746 10.7074 6.82006 10.7072 6.78233V4.21983C10.7074 4.18211 10.7002 4.14471 10.6859 4.10979C10.6717 4.07485 10.6507 4.04307 10.6241 4.01627C10.5976 3.98945 10.5661 3.96813 10.5313 3.95351C10.4965 3.9389 10.4592 3.93127 10.4214 3.93109H6.67959V0.489787C6.67988 0.450255 6.67238 0.411054 6.65749 0.374428C6.64261 0.337804 6.62065 0.304473 6.59286 0.276349C6.56508 0.248223 6.53202 0.225855 6.49558 0.210524C6.45915 0.195195 6.42004 0.187205 6.3805 0.187012H3.34685C3.30731 0.187205 3.26821 0.195195 3.23177 0.210524C3.19533 0.225855 3.16227 0.248223 3.13449 0.276349C3.10671 0.304473 3.08474 0.337804 3.06986 0.374428C3.05499 0.411054 3.04747 0.450255 3.04776 0.489787V3.93109H0.915786C0.836004 3.93167 0.759712 3.96388 0.703644 4.02063C0.647576 4.0774 0.61631 4.15408 0.616703 4.23385V6.76904C0.616703 6.93595 0.751105 7.07182 0.915786 7.07182H3.04776V11.7294C3.04776 13.6324 3.34462 14.8413 4.04101 15.7711C4.98921 17.0501 6.59172 17.7258 8.67422 17.7258C10.2789 17.7258 11.3047 17.3418 11.8578 16.9031C12.0173 16.7761 12.0498 16.4911 11.956 16.3559C11.5151 15.6608 11.0769 14.9639 10.6415 14.2653C10.53 14.0822 10.2922 14.0401 10.0928 14.1501C9.82254 14.2993 9.30635 14.4691 8.89354 14.4691Z" fill="#00567A"/>
</g>
</g>
</g>
<g id="Mask group_5">
<mask id="mask5_203_287" style="mask-type:luminance" maskUnits="userSpaceOnUse" x="0" y="0" width="13" height="18">
<g id="Group_10">
<path id="Vector_11" d="M0.616699 0.187012H12.0084V17.7258H0.616699V0.187012Z" fill="#00567A"/>
</g>
</mask>
<g mask="url(#mask5_203_287)">
<g id="Group_11">
<path id="Vector_12" fill-rule="evenodd" clip-rule="evenodd" d="M8.89354 14.4691C8.08121 14.4691 7.50077 14.218 7.10939 13.7277C6.81621 13.3599 6.67885 12.8674 6.67885 12.058V7.07108H10.4214C10.4592 7.07088 10.4965 7.06327 10.5313 7.04866C10.5661 7.03404 10.5976 7.01272 10.6241 6.9859C10.6507 6.9591 10.6717 6.9273 10.6859 6.89238C10.7002 6.85746 10.7074 6.82006 10.7072 6.78233V4.21983C10.7074 4.18211 10.7002 4.14471 10.6859 4.10979C10.6717 4.07485 10.6507 4.04307 10.6241 4.01627C10.5976 3.98945 10.5661 3.96813 10.5313 3.95351C10.4965 3.9389 10.4592 3.93127 10.4214 3.93109H6.67959V0.489787C6.67988 0.450255 6.67238 0.411054 6.65749 0.374428C6.64261 0.337804 6.62065 0.304473 6.59286 0.276349C6.56508 0.248223 6.53202 0.225855 6.49558 0.210524C6.45915 0.195195 6.42004 0.187205 6.3805 0.187012H3.34685C3.30731 0.187205 3.26821 0.195195 3.23177 0.210524C3.19533 0.225855 3.16227 0.248223 3.13449 0.276349C3.10671 0.304473 3.08474 0.337804 3.06986 0.374428C3.05499 0.411054 3.04747 0.450255 3.04776 0.489787V3.93109H0.915786C0.836004 3.93167 0.759712 3.96388 0.703644 4.02063C0.647576 4.0774 0.61631 4.15408 0.616703 4.23385V6.76904C0.616703 6.93595 0.751105 7.07182 0.915786 7.07182H3.04776V11.7294C3.04776 13.6324 3.34462 14.8413 4.04101 15.7711C4.98921 17.0501 6.59172 17.7258 8.67422 17.7258C10.2789 17.7258 11.3047 17.3418 11.8578 16.9031C12.0173 16.7761 12.0498 16.4911 11.956 16.3559C11.5151 15.6608 11.0769 14.9639 10.6415 14.2653C10.53 14.0822 10.2922 14.0401 10.0928 14.1501C9.82254 14.2993 9.30635 14.4691 8.89354 14.4691Z" fill="#00567A"/>
</g>
</g>
</g>
<g id="Mask group_6">
<mask id="mask6_203_287" style="mask-type:luminance" maskUnits="userSpaceOnUse" x="0" y="0" width="13" height="18">
<g id="Group_12">
<path id="Vector_13" d="M0.616699 0.187012H12.0084V17.7258H0.616699V0.187012Z" fill="#00567A"/>
</g>
</mask>
<g mask="url(#mask6_203_287)">
<g id="Group_13">
<path id="Vector_14" fill-rule="evenodd" clip-rule="evenodd" d="M8.89354 14.4691C8.08121 14.4691 7.50077 14.218 7.10939 13.7277C6.81621 13.3599 6.67885 12.8674 6.67885 12.058V7.07108H10.4214C10.4592 7.07088 10.4965 7.06327 10.5313 7.04866C10.5661 7.03404 10.5976 7.01272 10.6241 6.9859C10.6507 6.9591 10.6717 6.9273 10.6859 6.89238C10.7002 6.85746 10.7074 6.82006 10.7072 6.78233V4.21983C10.7074 4.18211 10.7002 4.14471 10.6859 4.10979C10.6717 4.07485 10.6507 4.04307 10.6241 4.01627C10.5976 3.98945 10.5661 3.96813 10.5313 3.95351C10.4965 3.9389 10.4592 3.93127 10.4214 3.93109H6.67959V0.489787C6.67988 0.450255 6.67238 0.411054 6.65749 0.374428C6.64261 0.337804 6.62065 0.304473 6.59286 0.276349C6.56508 0.248223 6.53202 0.225855 6.49558 0.210524C6.45915 0.195195 6.42004 0.187205 6.3805 0.187012H3.34685C3.30731 0.187205 3.26821 0.195195 3.23177 0.210524C3.19533 0.225855 3.16227 0.248223 3.13449 0.276349C3.10671 0.304473 3.08474 0.337804 3.06986 0.374428C3.05499 0.411054 3.04747 0.450255 3.04776 0.489787V3.93109H0.915786C0.836004 3.93167 0.759712 3.96388 0.703644 4.02063C0.647576 4.0774 0.61631 4.15408 0.616703 4.23385V6.76904C0.616703 6.93595 0.751105 7.07182 0.915786 7.07182H3.04776V11.7294C3.04776 13.6324 3.34462 14.8413 4.04101 15.7711C4.98921 17.0501 6.59172 17.7258 8.67422 17.7258C10.2789 17.7258 11.3047 17.3418 11.8578 16.9031C12.0173 16.7761 12.0498 16.4911 11.956 16.3559C11.5151 15.6608 11.0769 14.9639 10.6415 14.2653C10.53 14.0822 10.2922 14.0401 10.0928 14.1501C9.82254 14.2993 9.30635 14.4691 8.89354 14.4691Z" fill="#00567A"/>
</g>
</g>
</g>
<g id="Mask group_7">
<mask id="mask7_203_287" style="mask-type:luminance" maskUnits="userSpaceOnUse" x="0" y="0" width="13" height="18">
<g id="Group_14">
<path id="Vector_15" d="M0.616699 0.187012H12.0084V17.7258H0.616699V0.187012Z" fill="#00567A"/>
</g>
</mask>
<g mask="url(#mask7_203_287)">
<g id="Group_15">
<path id="Vector_16" fill-rule="evenodd" clip-rule="evenodd" d="M8.89354 14.4691C8.08121 14.4691 7.50077 14.218 7.10939 13.7277C6.81621 13.3599 6.67885 12.8674 6.67885 12.058V7.07108H10.4214C10.4592 7.07088 10.4965 7.06327 10.5313 7.04866C10.5661 7.03404 10.5976 7.01272 10.6241 6.9859C10.6507 6.9591 10.6717 6.9273 10.6859 6.89238C10.7002 6.85746 10.7074 6.82006 10.7072 6.78233V4.21983C10.7074 4.18211 10.7002 4.14471 10.6859 4.10979C10.6717 4.07485 10.6507 4.04307 10.6241 4.01627C10.5976 3.98945 10.5661 3.96813 10.5313 3.95351C10.4965 3.9389 10.4592 3.93127 10.4214 3.93109H6.67959V0.489787C6.67988 0.450255 6.67238 0.411054 6.65749 0.374428C6.64261 0.337804 6.62065 0.304473 6.59286 0.276349C6.56508 0.248223 6.53202 0.225855 6.49558 0.210524C6.45915 0.195195 6.42004 0.187205 6.3805 0.187012H3.34685C3.30731 0.187205 3.26821 0.195195 3.23177 0.210524C3.19533 0.225855 3.16227 0.248223 3.13449 0.276349C3.10671 0.304473 3.08474 0.337804 3.06986 0.374428C3.05499 0.411054 3.04747 0.450255 3.04776 0.489787V3.93109H0.915786C0.836004 3.93167 0.759712 3.96388 0.703644 4.02063C0.647576 4.0774 0.61631 4.15408 0.616703 4.23385V6.76904C0.616703 6.93595 0.751105 7.07182 0.915786 7.07182H3.04776V11.7294C3.04776 13.6324 3.34462 14.8413 4.04101 15.7711C4.98921 17.0501 6.59172 17.7258 8.67422 17.7258C10.2789 17.7258 11.3047 17.3418 11.8578 16.9031C12.0173 16.7761 12.0498 16.4911 11.956 16.3559C11.5151 15.6608 11.0769 14.9639 10.6415 14.2653C10.53 14.0822 10.2922 14.0401 10.0928 14.1501C9.82254 14.2993 9.30635 14.4691 8.89354 14.4691Z" fill="#00567A"/>
</g>
</g>
</g>
<path id="Vector_17" fill-rule="evenodd" clip-rule="evenodd" d="M17.7301 6.63241C18.8673 6.63241 20.1745 7.50675 20.3251 8.92168H14.9165C15.0878 7.81396 16.2007 6.63241 17.7301 6.63241ZM17.7301 3.6534C15.8647 3.6534 14.181 4.40442 12.9891 5.76839C11.8518 7.06958 11.2256 8.82197 11.2256 10.7029C11.2256 14.8383 14.1027 17.7258 18.2234 17.7258C20.0348 17.7258 21.8182 17.0597 23.0759 15.9483C23.1321 15.898 23.1985 15.8345 23.2665 15.7651C23.3177 15.7134 23.3488 15.645 23.3538 15.5724C23.3591 15.4998 23.3379 15.4277 23.2945 15.3693L21.8575 13.4544C21.8323 13.4207 21.8003 13.3926 21.7636 13.3721C21.7269 13.3517 21.6862 13.3393 21.6442 13.3358C21.6023 13.3323 21.5601 13.3378 21.5205 13.3519C21.4808 13.366 21.4446 13.3884 21.4144 13.4175C21.3316 13.4973 21.2326 13.5874 21.1294 13.673C20.5347 14.1589 19.5719 14.746 18.3054 14.746C16.4119 14.746 14.9556 13.4648 14.7503 11.6245H23.5855C23.6917 11.6243 23.7942 11.5845 23.8727 11.513C23.9514 11.4415 24.0006 11.3433 24.0109 11.2375C24.0326 11.0139 24.0431 10.7894 24.0425 10.5648C24.0425 8.71343 23.4133 6.98539 22.2716 5.69897C21.7054 5.05255 21.0069 4.53537 20.2233 4.18244C19.4397 3.82951 18.5895 3.64909 17.7301 3.6534Z" fill="#00567A"/>
<path id="Vector_18" fill-rule="evenodd" clip-rule="evenodd" d="M30.6426 14.2624L30.6485 12.3306C30.65 11.5426 30.8131 10.6631 31.1159 9.76586C31.4593 8.74454 31.9534 7.87609 32.4999 7.2447L33.3344 6.16357V10.6816L30.6426 14.2632V14.2624Z" fill="#00A03B"/>
<path id="Vector_19" fill-rule="evenodd" clip-rule="evenodd" d="M33.3345 6.16325L35.1068 3.8666C35.1725 3.77715 35.266 3.71199 35.3725 3.68126C35.4792 3.65054 35.5929 3.65598 35.696 3.69674C35.8024 3.74065 35.8928 3.81576 35.9554 3.91216C36.0179 4.00853 36.05 4.12165 36.0469 4.23657L36.0335 7.09004L33.3345 10.6813V6.16325Z" fill="#AFCB37"/>
<path id="Vector_20" fill-rule="evenodd" clip-rule="evenodd" d="M36.0335 7.09033L36.0263 8.72975C36.0536 9.57161 35.914 10.5405 35.5832 11.5219C35.2802 12.4199 34.886 13.2079 34.4178 13.8127L33.3345 15.2224V10.6823L36.0335 7.09033Z" fill="#3C7E79"/>
<path id="Vector_21" fill-rule="evenodd" clip-rule="evenodd" d="M33.3351 10.6807V15.2223L31.5753 17.5116C31.5096 17.6013 31.4159 17.6666 31.3091 17.6975C31.2022 17.7284 31.0881 17.723 30.9846 17.6822C30.8784 17.638 30.7882 17.5627 30.7256 17.4662C30.6632 17.3697 30.6314 17.2565 30.6345 17.1416L30.6433 14.2623L33.3351 10.6807Z" fill="#00567A"/>
<path id="Vector_22" fill-rule="evenodd" clip-rule="evenodd" d="M30.2607 14.2624L30.2556 12.3306C30.2542 11.5426 30.0909 10.6631 29.7889 9.76586C29.4447 8.74454 28.9515 7.87609 28.4043 7.2447L27.5698 6.16357V10.6816L30.2607 14.2624Z" fill="#00A03B"/>
<path id="Vector_23" fill-rule="evenodd" clip-rule="evenodd" d="M27.5695 6.16349L25.7972 3.86684C25.7315 3.77723 25.638 3.71196 25.5311 3.68121C25.4244 3.65049 25.3105 3.65602 25.2072 3.69698C25.1011 3.74109 25.011 3.81627 24.9484 3.91263C24.8861 4.00899 24.8542 4.122 24.8571 4.23681L24.8698 7.09028L27.5688 10.6815L27.5695 6.16349Z" fill="#AFCB37"/>
<path id="Vector_24" fill-rule="evenodd" clip-rule="evenodd" d="M24.8701 7.09033L24.8775 8.72975C24.8502 9.57161 24.9898 10.5398 25.3206 11.5227C25.6234 12.4199 26.0185 13.2086 26.4858 13.8127L27.5693 15.2217V10.6815L24.8701 7.09033Z" fill="#3C7E79"/>
<path id="Vector_25" fill-rule="evenodd" clip-rule="evenodd" d="M27.5698 10.6807V15.2223L29.3295 17.5116C29.3953 17.6013 29.489 17.6666 29.5959 17.6975C29.7028 17.7284 29.8169 17.723 29.9203 17.6822C30.0265 17.638 30.1168 17.5627 30.1793 17.4662C30.2417 17.3697 30.2736 17.2565 30.2703 17.1416L30.2607 14.2623L27.5698 10.6807Z" fill="#00567A"/>
</g>
</g>
</g>
</g>
<defs>
<clipPath id="clip0_203_287">
<rect width="51" height="17.7234" fill="white" transform="translate(0.5 0.00976562)"/>
</clipPath>
</defs>
</svg>
