<svg width="25" height="26" viewBox="0 0 25 26" fill="none" xmlns="http://www.w3.org/2000/svg">
<g id="schedule">
<mask id="mask0_13_788" style="mask-type:alpha" maskUnits="userSpaceOnUse" x="0" y="0" width="25" height="26">
<rect id="Bounding box" y="0.875977" width="25" height="25" fill="#D9D9D9"/>
</mask>
<g mask="url(#mask0_13_788)">
<path id="schedule_2" d="M13.4203 13.0288V8.81003C13.4203 8.56119 13.3378 8.35431 13.1729 8.18938C13.008 8.02445 12.8011 7.94198 12.5522 7.94198C12.3034 7.94198 12.0965 8.02445 11.9316 8.18938C11.7667 8.35431 11.6842 8.56119 11.6842 8.81003V13.3673C11.6842 13.4831 11.7045 13.5916 11.745 13.6929C11.7855 13.7941 11.8462 13.8911 11.9272 13.9836L15.5731 17.7163C15.7409 17.8957 15.9521 17.9825 16.2068 17.9767C16.4614 17.9709 16.6726 17.8841 16.8405 17.7163C17.0083 17.5485 17.0922 17.3401 17.0922 17.0913C17.0922 16.8425 17.0083 16.6341 16.8405 16.4663L13.4203 13.0288ZM12.5002 23.7927C11.0708 23.7927 9.72239 23.5192 8.45503 22.9724C7.18767 22.4255 6.08234 21.6804 5.13904 20.7371C4.19576 19.7938 3.45068 18.6885 2.90381 17.4211C2.35693 16.1538 2.0835 14.8054 2.0835 13.376C2.0835 11.9466 2.35693 10.5982 2.90381 9.33089C3.45068 8.06353 4.19576 6.9582 5.13904 6.0149C6.08234 5.07162 7.18767 4.32654 8.45503 3.77966C9.72239 3.23279 11.0708 2.95935 12.5002 2.95935C13.9296 2.95935 15.2779 3.23279 16.5453 3.77966C17.8127 4.32654 18.918 5.07162 19.8613 6.0149C20.8046 6.9582 21.5496 8.06353 22.0965 9.33089C22.6434 10.5982 22.9168 11.9466 22.9168 13.376C22.9168 14.8054 22.6434 16.1538 22.0965 17.4211C21.5496 18.6885 20.8046 19.7938 19.8613 20.7371C18.918 21.6804 17.8127 22.4255 16.5453 22.9724C15.2779 23.5192 13.9296 23.7927 12.5002 23.7927ZM12.5002 22.0566C14.8902 22.0566 16.9345 21.2073 18.633 19.5088C20.3315 17.8103 21.1807 15.7661 21.1807 13.376C21.1807 10.986 20.3315 8.9417 18.633 7.24321C16.9345 5.5447 14.8902 4.69544 12.5002 4.69544C10.1101 4.69544 8.06584 5.5447 6.36735 7.24321C4.66884 8.9417 3.81959 10.986 3.81959 13.376C3.81959 15.7661 4.66884 17.8103 6.36735 19.5088C8.06584 21.2073 10.1101 22.0566 12.5002 22.0566Z" fill="white"/>
</g>
</g>
</svg>
